<svg class="badge__emoji" xmlns="http://www.w3.org/2000/svg" width="40" height="40" viewBox="0 0 40 40" fill="none">
									<g clip-path="url(#clip0_85_881)">
									  <path d="M31.3072 10.7239L39.5891 19.0059C39.8523 19.2696 40.0001 19.627 40.0001 19.9995C40.0001 20.3721 39.8523 20.7295 39.5891 20.9932L31.3072 29.2752C31.1236 29.4582 30.8748 29.5608 30.6156 29.5606C30.3564 29.5604 30.1078 29.4573 29.9245 29.274C29.7412 29.0907 29.6381 28.8422 29.6379 28.5829C29.6377 28.3237 29.7404 28.075 29.9234 27.8913L36.8368 20.9781L0.978516 20.9781C0.718997 20.9781 0.470108 20.875 0.2866 20.6915C0.103093 20.508 -1.17109e-07 20.2591 -1.14015e-07 19.9995C-1.1092e-07 19.74 0.103093 19.4911 0.2866 19.3076C0.470108 19.1241 0.718997 19.021 0.978516 19.021L36.8368 19.021L29.9234 12.1077C29.7404 11.9241 29.6377 11.6754 29.6379 11.4162C29.6381 11.1569 29.7412 10.9084 29.9245 10.7251C30.1078 10.5418 30.3564 10.4387 30.6156 10.4385C30.8748 10.4383 31.1236 10.5409 31.3072 10.7239Z" fill="black"></path>
									</g>
									<defs>
									  <clipPath id="clip0_85_881">
										<rect width="40" height="40" fill="white" transform="matrix(-1.19249e-08 1 1 1.19249e-08 0 0)"></rect>
									  </clipPath>
									</defs>
								</svg>